# Blender v2.79 (sub 7) OBJ File: 'thor_hammer.blend'
# www.blender.org
o Cylinder.003_Cylinder.004
v 0.029838 -13.308215 4.324051
v 0.029838 0.627404 4.324051
v 0.074549 -13.308215 4.328455
v 0.074549 0.627404 4.328455
v 0.117542 -13.308215 4.341497
v 0.117542 0.627404 4.341497
v 0.157165 -13.308215 4.362676
v 0.157165 0.627404 4.362676
v 0.191894 -13.308215 4.391177
v 0.191894 0.627404 4.391177
v 0.220396 -13.308215 4.425907
v 0.220396 0.627404 4.425907
v 0.241575 -13.308215 4.465529
v 0.241575 0.627404 4.465529
v 0.254617 -13.308215 4.508523
v 0.254617 0.627404 4.508523
v 0.259020 -13.308215 4.553234
v 0.259020 0.627404 4.553234
v 0.254617 -13.308215 4.597945
v 0.254617 0.627404 4.597945
v 0.241575 -13.308215 4.640939
v 0.241575 0.627404 4.640939
v 0.220396 -13.308215 4.680561
v 0.220396 0.627404 4.680561
v 0.191894 -13.308215 4.715291
v 0.191894 0.627404 4.715291
v 0.157165 -13.308215 4.743793
v 0.157165 0.627404 4.743793
v 0.117542 -13.308215 4.764972
v 0.117542 0.627404 4.764972
v 0.074549 -13.308215 4.778013
v 0.074549 0.627404 4.778013
v 0.029837 -13.308215 4.782417
v 0.029837 0.627404 4.782417
v -0.014874 -13.308215 4.778013
v -0.014874 0.627404 4.778013
v -0.057867 -13.308215 4.764971
v -0.057867 0.627404 4.764971
v -0.097490 -13.308215 4.743793
v -0.097490 0.627404 4.743793
v -0.132219 -13.308215 4.715291
v -0.132219 0.627404 4.715291
v -0.160721 -13.308215 4.680561
v -0.160721 0.627404 4.680561
v -0.181900 -13.308215 4.640938
v -0.181900 0.627404 4.640938
v -0.194942 -13.308215 4.597945
v -0.194942 0.627404 4.597945
v -0.199345 -13.308215 4.553234
v -0.199345 0.627404 4.553234
v -0.194942 -13.308215 4.508523
v -0.194942 0.627404 4.508523
v -0.181900 -13.308215 4.465529
v -0.181900 0.627404 4.465529
v -0.160721 -13.308215 4.425907
v -0.160721 0.627404 4.425907
v -0.132219 -13.308215 4.391177
v -0.132219 0.627404 4.391177
v -0.097489 -13.308215 4.362675
v -0.097489 0.627404 4.362675
v -0.057867 -13.308215 4.341496
v -0.057867 0.627404 4.341496
v -0.014874 -13.308215 4.328455
v -0.014874 0.627404 4.328455
vn 0.0980 0.0000 -0.9952
vn 0.2903 0.0000 -0.9569
vn 0.4714 0.0000 -0.8819
vn 0.6344 0.0000 -0.7730
vn 0.7730 0.0000 -0.6344
vn 0.8819 0.0000 -0.4714
vn 0.9569 0.0000 -0.2903
vn 0.9952 0.0000 -0.0980
vn 0.9952 0.0000 0.0980
vn 0.9569 0.0000 0.2903
vn 0.8819 0.0000 0.4714
vn 0.7730 0.0000 0.6344
vn 0.6344 0.0000 0.7730
vn 0.4714 0.0000 0.8819
vn 0.2903 0.0000 0.9569
vn 0.0980 0.0000 0.9952
vn -0.0980 0.0000 0.9952
vn -0.2903 0.0000 0.9569
vn -0.4714 0.0000 0.8819
vn -0.6344 0.0000 0.7730
vn -0.7730 0.0000 0.6344
vn -0.8819 0.0000 0.4714
vn -0.9569 0.0000 0.2903
vn -0.9952 0.0000 0.0980
vn -0.9952 0.0000 -0.0980
vn -0.9569 0.0000 -0.2903
vn -0.8819 0.0000 -0.4714
vn -0.7730 0.0000 -0.6344
vn -0.6344 0.0000 -0.7730
vn -0.4714 0.0000 -0.8819
vn 0.0000 1.0000 -0.0000
vn -0.2903 0.0000 -0.9569
vn -0.0980 0.0000 -0.9952
vn 0.0000 -1.0000 0.0000
vn 0.0000 -1.0000 0.0003
vn 0.0000 -1.0000 0.0002
vn 0.0000 -1.0000 -0.0002
vn 0.0000 -1.0000 -0.0003
vn 0.0000 -1.0000 -0.0001
s off
f 2//1 3//1 1//1
f 4//2 5//2 3//2
f 6//3 7//3 5//3
f 8//4 9//4 7//4
f 10//5 11//5 9//5
f 12//6 13//6 11//6
f 14//7 15//7 13//7
f 16//8 17//8 15//8
f 18//9 19//9 17//9
f 20//10 21//10 19//10
f 22//11 23//11 21//11
f 24//12 25//12 23//12
f 26//13 27//13 25//13
f 28//14 29//14 27//14
f 30//15 31//15 29//15
f 32//16 33//16 31//16
f 34//17 35//17 33//17
f 36//18 37//18 35//18
f 38//19 39//19 37//19
f 40//20 41//20 39//20
f 42//21 43//21 41//21
f 44//22 45//22 43//22
f 46//23 47//23 45//23
f 48//24 49//24 47//24
f 50//25 51//25 49//25
f 52//26 53//26 51//26
f 54//27 55//27 53//27
f 56//28 57//28 55//28
f 58//29 59//29 57//29
f 60//30 61//30 59//30
f 54//31 38//31 22//31
f 62//32 63//32 61//32
f 64//33 1//33 63//33
f 15//34 31//34 47//34
f 2//1 4//1 3//1
f 4//2 6//2 5//2
f 6//3 8//3 7//3
f 8//4 10//4 9//4
f 10//5 12//5 11//5
f 12//6 14//6 13//6
f 14//7 16//7 15//7
f 16//8 18//8 17//8
f 18//9 20//9 19//9
f 20//10 22//10 21//10
f 22//11 24//11 23//11
f 24//12 26//12 25//12
f 26//13 28//13 27//13
f 28//14 30//14 29//14
f 30//15 32//15 31//15
f 32//16 34//16 33//16
f 34//17 36//17 35//17
f 36//18 38//18 37//18
f 38//19 40//19 39//19
f 40//20 42//20 41//20
f 42//21 44//21 43//21
f 44//22 46//22 45//22
f 46//23 48//23 47//23
f 48//24 50//24 49//24
f 50//25 52//25 51//25
f 52//26 54//26 53//26
f 54//27 56//27 55//27
f 56//28 58//28 57//28
f 58//29 60//29 59//29
f 60//30 62//30 61//30
f 6//31 4//31 2//31
f 2//31 64//31 6//31
f 64//31 62//31 6//31
f 62//31 60//31 58//31
f 58//31 56//31 54//31
f 54//31 52//31 50//31
f 50//31 48//31 54//31
f 48//31 46//31 54//31
f 46//31 44//31 42//31
f 42//31 40//31 38//31
f 38//31 36//31 34//31
f 34//31 32//31 30//31
f 30//31 28//31 26//31
f 26//31 24//31 22//31
f 22//31 20//31 18//31
f 18//31 16//31 22//31
f 16//31 14//31 22//31
f 14//31 12//31 10//31
f 10//31 8//31 6//31
f 62//31 58//31 6//31
f 58//31 54//31 6//31
f 46//31 42//31 38//31
f 38//31 34//31 22//31
f 34//31 30//31 22//31
f 30//31 26//31 22//31
f 14//31 10//31 22//31
f 10//31 6//31 22//31
f 54//31 46//31 38//31
f 6//31 54//31 22//31
f 62//32 64//32 63//32
f 64//33 2//33 1//33
f 63//34 1//34 3//34
f 3//35 5//35 7//35
f 7//36 9//36 11//36
f 11//37 13//37 7//37
f 13//34 15//34 7//34
f 15//34 17//34 19//34
f 19//34 21//34 15//34
f 21//34 23//34 15//34
f 23//34 25//34 31//34
f 25//34 27//34 31//34
f 27//38 29//38 31//38
f 31//38 33//38 35//38
f 35//35 37//35 39//35
f 39//34 41//34 47//34
f 41//34 43//34 47//34
f 43//39 45//39 47//39
f 47//34 49//34 51//34
f 51//36 53//36 55//36
f 55//34 57//34 59//34
f 59//38 61//38 63//38
f 63//34 3//34 7//34
f 31//34 35//34 47//34
f 35//34 39//34 47//34
f 47//34 51//34 63//34
f 51//34 55//34 63//34
f 55//34 59//34 63//34
f 63//34 7//34 15//34
f 15//34 23//34 31//34
f 63//34 15//34 47//34
o Cylinder.002_Cylinder.003
v 0.061650 0.421971 -0.958860
v 0.061650 0.421971 4.820418
v 0.110930 0.417117 -0.958860
v 0.110930 0.417117 4.820418
v 0.158317 0.402742 -0.958860
v 0.158317 0.402743 4.820418
v 0.201989 0.379399 -0.958860
v 0.201989 0.379399 4.820418
v 0.240268 0.347984 -0.958860
v 0.240268 0.347985 4.820418
v 0.271683 0.309705 -0.958860
v 0.271683 0.309706 4.820418
v 0.295026 0.266033 -0.958860
v 0.295026 0.266034 4.820418
v 0.309401 0.218646 -0.958860
v 0.309401 0.218647 4.820418
v 0.314254 0.169366 -0.958860
v 0.314254 0.169366 4.820418
v 0.309401 0.120085 -0.958860
v 0.309401 0.120085 4.820418
v 0.295026 0.072698 -0.958860
v 0.295026 0.072698 4.820418
v 0.271683 0.029026 -0.958860
v 0.271683 0.029026 4.820418
v 0.240268 -0.009253 -0.958860
v 0.240268 -0.009252 4.820418
v 0.201989 -0.040668 -0.958860
v 0.201989 -0.040667 4.820418
v 0.158317 -0.064011 -0.958860
v 0.158317 -0.064010 4.820418
v 0.110930 -0.078385 -0.958860
v 0.110930 -0.078385 4.820418
v 0.061650 -0.083239 -0.958860
v 0.061650 -0.083239 4.820418
v 0.012369 -0.078385 -0.958860
v 0.012369 -0.078385 4.820418
v -0.035018 -0.064011 -0.958860
v -0.035018 -0.064010 4.820418
v -0.078690 -0.040667 -0.958860
v -0.078690 -0.040667 4.820418
v -0.116969 -0.009253 -0.958860
v -0.116969 -0.009252 4.820418
v -0.148384 0.029026 -0.958860
v -0.148384 0.029027 4.820418
v -0.171727 0.072698 -0.958860
v -0.171727 0.072699 4.820418
v -0.186101 0.120085 -0.958860
v -0.186101 0.120086 4.820418
v -0.190955 0.169366 -0.958860
v -0.190955 0.169366 4.820418
v -0.186101 0.218647 -0.958860
v -0.186101 0.218647 4.820418
v -0.171727 0.266034 -0.958860
v -0.171727 0.266034 4.820418
v -0.148383 0.309706 -0.958860
v -0.148383 0.309706 4.820418
v -0.116969 0.347984 -0.958860
v -0.116969 0.347985 4.820418
v -0.078690 0.379399 -0.958860
v -0.078690 0.379400 4.820418
v -0.035018 0.402742 -0.958860
v -0.035018 0.402743 4.820418
v 0.012369 0.417117 -0.958860
v 0.012369 0.417117 4.820418
vn 0.0980 0.9952 -0.0000
vn 0.2903 0.9569 -0.0000
vn 0.4714 0.8819 -0.0000
vn 0.6344 0.7730 -0.0000
vn 0.7730 0.6344 -0.0000
vn 0.8819 0.4714 -0.0000
vn 0.9569 0.2903 -0.0000
vn 0.9952 0.0980 -0.0000
vn 0.9952 -0.0980 0.0000
vn 0.9569 -0.2903 0.0000
vn 0.8819 -0.4714 0.0000
vn 0.7730 -0.6344 0.0000
vn 0.6344 -0.7730 0.0000
vn 0.4714 -0.8819 0.0000
vn 0.2903 -0.9569 0.0000
vn 0.0980 -0.9952 0.0000
vn -0.0980 -0.9952 0.0000
vn -0.2903 -0.9569 0.0000
vn -0.4714 -0.8819 0.0000
vn -0.6344 -0.7730 0.0000
vn -0.7730 -0.6344 0.0000
vn -0.8819 -0.4714 0.0000
vn -0.9569 -0.2903 0.0000
vn -0.9952 -0.0980 0.0000
vn -0.9952 0.0980 -0.0000
vn -0.9569 0.2903 -0.0000
vn -0.8819 0.4714 -0.0000
vn -0.7730 0.6344 -0.0000
vn -0.6344 0.7730 -0.0000
vn -0.4714 0.8819 -0.0000
vn 0.0000 0.0000 1.0000
vn -0.2903 0.9569 -0.0000
vn -0.0980 0.9952 -0.0000
vn 0.0000 0.0000 -1.0000
vn -0.0001 0.0000 1.0000
vn 0.0001 0.0000 1.0000
s off
f 66//40 67//40 65//40
f 68//41 69//41 67//41
f 70//42 71//42 69//42
f 72//43 73//43 71//43
f 74//44 75//44 73//44
f 76//45 77//45 75//45
f 78//46 79//46 77//46
f 80//47 81//47 79//47
f 82//48 83//48 81//48
f 84//49 85//49 83//49
f 86//50 87//50 85//50
f 88//51 89//51 87//51
f 90//52 91//52 89//52
f 92//53 93//53 91//53
f 94//54 95//54 93//54
f 96//55 97//55 95//55
f 98//56 99//56 97//56
f 100//57 101//57 99//57
f 102//58 103//58 101//58
f 104//59 105//59 103//59
f 106//60 107//60 105//60
f 108//61 109//61 107//61
f 110//62 111//62 109//62
f 112//63 113//63 111//63
f 114//64 115//64 113//64
f 116//65 117//65 115//65
f 118//66 119//66 117//66
f 120//67 121//67 119//67
f 122//68 123//68 121//68
f 124//69 125//69 123//69
f 118//70 102//70 86//70
f 126//71 127//71 125//71
f 128//72 65//72 127//72
f 79//73 95//73 111//73
f 66//40 68//40 67//40
f 68//41 70//41 69//41
f 70//42 72//42 71//42
f 72//43 74//43 73//43
f 74//44 76//44 75//44
f 76//45 78//45 77//45
f 78//46 80//46 79//46
f 80//47 82//47 81//47
f 82//48 84//48 83//48
f 84//49 86//49 85//49
f 86//50 88//50 87//50
f 88//51 90//51 89//51
f 90//52 92//52 91//52
f 92//53 94//53 93//53
f 94//54 96//54 95//54
f 96//55 98//55 97//55
f 98//56 100//56 99//56
f 100//57 102//57 101//57
f 102//58 104//58 103//58
f 104//59 106//59 105//59
f 106//60 108//60 107//60
f 108//61 110//61 109//61
f 110//62 112//62 111//62
f 112//63 114//63 113//63
f 114//64 116//64 115//64
f 116//65 118//65 117//65
f 118//66 120//66 119//66
f 120//67 122//67 121//67
f 122//68 124//68 123//68
f 124//69 126//69 125//69
f 70//70 68//70 66//70
f 66//70 128//70 70//70
f 128//70 126//70 70//70
f 126//70 124//70 122//70
f 122//70 120//70 118//70
f 118//74 116//74 114//74
f 114//70 112//70 118//70
f 112//70 110//70 118//70
f 110//75 108//75 106//75
f 106//70 104//70 102//70
f 102//70 100//70 98//70
f 98//70 96//70 94//70
f 94//75 92//75 90//75
f 90//75 88//75 86//75
f 86//75 84//75 82//75
f 82//74 80//74 86//74
f 80//70 78//70 86//70
f 78//70 76//70 74//70
f 74//74 72//74 70//74
f 126//70 122//70 70//70
f 122//70 118//70 70//70
f 110//70 106//70 102//70
f 102//70 98//70 86//70
f 98//70 94//70 86//70
f 94//70 90//70 86//70
f 78//70 74//70 86//70
f 74//70 70//70 86//70
f 118//70 110//70 102//70
f 70//70 118//70 86//70
f 126//71 128//71 127//71
f 128//72 66//72 65//72
f 127//73 65//73 67//73
f 67//73 69//73 71//73
f 71//73 73//73 75//73
f 75//73 77//73 71//73
f 77//73 79//73 71//73
f 79//73 81//73 83//73
f 83//73 85//73 79//73
f 85//73 87//73 79//73
f 87//73 89//73 95//73
f 89//73 91//73 95//73
f 91//73 93//73 95//73
f 95//73 97//73 99//73
f 99//73 101//73 103//73
f 103//73 105//73 111//73
f 105//73 107//73 111//73
f 107//73 109//73 111//73
f 111//73 113//73 115//73
f 115//73 117//73 119//73
f 119//73 121//73 123//73
f 123//73 125//73 127//73
f 127//73 67//73 71//73
f 95//73 99//73 111//73
f 99//73 103//73 111//73
f 111//73 115//73 127//73
f 115//73 119//73 127//73
f 119//73 123//73 127//73
f 127//73 71//73 79//73
f 79//73 87//73 95//73
f 127//73 79//73 111//73
